<?xml version="1.0" encoding="utf-8"?><svg xmlns="http://www.w3.org/2000/svg" viewBox="0 0 776.83 267.7"><path d="M743.91,34.35c-4.24-4.14-12.22-1.78-17.91-.61-7.87,1.63-15.36,5.17-23,8.06C688.32,47.41,674,54.39,658.86,58.48c-18.17,4.92-37.09,7-55.5,11.09-22.93,5.15-45.4,13.11-68.56,16.32-29.83,4.13-60.13,5-90.25,6.85-54.41,3.41-108.66.9-161.28-13.41C262.21,73.6,237.12,71.26,227,43.76c-4.85-13.16-23.65-14.12-35.57-4.95-34.72,26.74-69.59,53.1-109.28,72.48-15.09,7.36-29,17.13-43.22,26.24-3.07,2-7.56,7.16-6.86,8.52,1.82,3.52,6.09,8,9.53,8.09,19.79.78,39.74,1.73,59.4,0,14.63-1.29,28.78-7.29,43.38-9.89,22.66-4,26.77.92,31,23.3a188.2,188.2,0,0,0,16.72,48.56c6,12,25.25,10.24,29.68-1.42,14.51-38.09,24.66-76.92,19.29-118.31-.62-4.8-.09-9.76-.09-16.26,151.65,51.12,299,26.52,441.63-16.28-1.56,51.26-11.79,102-5.19,154.15-1.78,4.2-5.78,4.2-7.95.35-2.62-15.63-6-31.19-7.64-46.92-1.85-17.43-5.95-29.88-26.82-29.77-16.35.09-32.71-2.85-49.08-3-30.67-.24-61.4-.47-92,1.23-32.13,1.78-64.07,7.19-96.2,8.51s-64.58-.47-96.87-.9c-11.4-.15-21.92,1.09-24.48,15.2-3.35,18.49-7,36.93-9.86,55.5-.57,3.74-.88,9,2.89,11.91,6.23.08,8.14-5.7,9.19-9.4,2.75-9.72,3-20.13,5.65-29.89,8.11-30.16,8.36-28.68,40.63-28.6,39.34.09,79.42,1.76,117.86-4.88,62.23-10.74,123.64-12.86,186-4.2,15.24,2.12,18,8.9,19.16,21.79,1.35,15.11,3.2,30.72,8.52,44.71,2.6,6.83,8.22,18.54,20.73,15.56,9.49,0,8-12.78,8.25-19.3.68-20.39-1.63-40.91-.62-61.27.93-18.78,6-37.38,6.68-56.15.45-12.84,2.39-20.58,16.35-24.64a77.08,77.08,0,0,0,30.22-17.4C742.77,52,746.67,41.21,743.91,34.35ZM150.39,135c-20.78,1.47-41.33,6-62.06,8.5-8.13,1-16.48.16-24.72.16l-1-4.23c3.18-3,5.91-6.77,9.6-8.87,23-13.1,46.46-25.57,69.41-38.83C150,87,157.44,80.68,165.12,74.85c10.5-8,20.56-16.57,31.33-24.18,8.38-5.91,15.36-4.42,19.37,8-25.74,9.9-35.46,30-39.32,54.71C173.43,133,170.34,133.62,150.39,135Zm55.43,77.62c-7.15.56-10.4-11.18-11.76-17-4-17.15-8.71-34.74-8.54-52.11a164.74,164.74,0,0,1,9.83-53.34c2.77-7.68,10.32-18,24.07-18.42C235.38,100.26,221.67,212.21,205.82,212.65Z"/></svg>